<?xml version="1.0" standalone="no"?>
<!DOCTYPE svg PUBLIC "-//W3C//DTD SVG 20010904//EN"
 "http://www.w3.org/TR/2001/REC-SVG-20010904/DTD/svg10.dtd">
<svg version="1.0" xmlns="http://www.w3.org/2000/svg"
 width="242.000000pt" height="212.000000pt" viewBox="0 0 242.000000 212.000000"
 preserveAspectRatio="xMidYMid meet">

<g transform="translate(0.000000,212.000000) scale(0.100000,-0.100000)"
fill="#000000" stroke="none">
<path d="M0 1060 l0 -1060 1210 0 1210 0 0 1060 0 1060 -1210 0 -1210 0 0
-1060z m1745 680 l-59 -60 -500 0 -500 0 64 -65 64 -65 553 0 c304 0 553 -4
553 -8 0 -5 -229 -237 -510 -516 -280 -280 -510 -510 -510 -512 0 -2 185 -4
412 -4 l412 0 -64 65 -64 65 -188 0 c-103 0 -188 3 -188 7 0 4 23 31 52 60
l52 53 161 0 160 0 147 -154 c81 -85 160 -168 174 -185 l26 -31 -699 0 -698 0
520 520 520 520 -435 0 -435 0 -155 162 c-85 89 -163 172 -173 185 l-18 23
692 0 693 0 -59 -60z m-765 -775 l-325 -325 -82 0 c-46 0 -83 3 -83 7 0 5 143
151 317 325 l318 318 90 0 90 0 -325 -325z"/>
</g>
</svg>
